<svg width="147" height="20" viewBox="0 0 147 20" fill="none" xmlns="http://www.w3.org/2000/svg">
<mask id="mask0_72_1002" style="mask-type:luminance" maskUnits="userSpaceOnUse" x="0" y="0" width="147" height="20">
<path fill-rule="evenodd" clip-rule="evenodd" d="M0 0.193359H147V19.0934H0V0.193359Z" fill="white"/>
</mask>
<g mask="url(#mask0_72_1002)">
<path fill-rule="evenodd" clip-rule="evenodd" d="M25.328 15.3811C26.3335 15.3811 27.149 16.212 27.149 17.2374C27.149 18.2627 26.3335 19.0936 25.328 19.0936C24.3225 19.0936 23.5071 18.2627 23.5071 17.2374C23.5071 16.212 24.3225 15.3811 25.328 15.3811ZM145.676 7.2813H146.205C146.279 7.2813 146.338 7.22089 146.338 7.1463V4.7163C146.338 4.64171 146.279 4.5813 146.205 4.5813H143.822C143.749 4.5813 143.689 4.64171 143.689 4.7163V5.2563C143.689 6.37444 144.579 7.2813 145.676 7.2813ZM140.049 12.0042H139.519C139.446 12.0042 139.387 12.0646 139.387 12.1392V14.5691C139.387 14.6437 139.446 14.7042 139.519 14.7042H141.903C141.976 14.7042 142.035 14.6437 142.035 14.5691V14.0292C142.035 12.911 141.145 12.0042 140.049 12.0042ZM86.7438 9.37733V9.84612C86.7438 9.92037 86.6845 9.98112 86.6113 9.98112H83.5654C83.4922 9.98112 83.433 9.92037 83.433 9.84612V9.37733C83.433 6.17243 83.3773 4.88082 82.9506 4.3857C82.9102 4.33879 82.9529 4.26454 83.0128 4.27703C85.1221 4.7151 86.7153 6.82752 86.7438 9.37733ZM77.4737 9.72023V9.37733C77.5021 6.82752 79.0953 4.71477 81.2046 4.27703C81.2645 4.26454 81.3076 4.33879 81.2669 4.3857C80.8401 4.88082 80.7845 6.17243 80.7845 9.37733C80.7848 9.94872 80.7851 10.3139 80.7858 10.4725C80.8043 13.0827 81.0424 14.6916 83.102 14.6916C83.3533 14.6916 83.5626 14.6832 83.7894 14.6666C83.8791 14.6602 83.893 14.7696 83.8255 14.7969C83.4441 14.9471 83.0474 15.0345 82.4399 15.0345C81.8059 15.0345 81.1659 14.9103 80.2888 14.5202C78.6497 13.7429 77.4978 11.8856 77.4737 9.72023ZM131.164 10.4106C131.13 10.3613 131.133 10.2962 131.169 10.2489L133.147 7.74195C133.205 7.67884 133.306 7.68626 133.354 7.75748L137.916 14.4943C137.977 14.5844 137.915 14.7063 137.808 14.7063H134.229C134.14 14.7063 134.058 14.661 134.009 14.5861L131.164 10.4106ZM130.114 14.571C130.114 14.6456 130.055 14.706 129.982 14.706H127.267C127.194 14.706 127.135 14.6456 127.135 14.571V0.666006C127.135 0.591418 127.194 0.531006 127.267 0.531006H129.982C130.055 0.531006 130.114 0.591418 130.114 0.666006V14.571ZM117.667 4.5813H120.382C120.455 4.5813 120.514 4.64171 120.514 4.7163V14.5713C120.514 14.6459 120.455 14.7063 120.382 14.7063H117.667C117.594 14.7063 117.534 14.6459 117.534 14.5713V4.7163C117.534 4.64171 117.594 4.5813 117.667 4.5813ZM123.327 4.57153C124.333 4.57153 125.148 5.40246 125.148 6.42778C125.148 7.45311 124.333 8.28403 123.327 8.28403C122.322 8.28403 121.506 7.45311 121.506 6.42778C121.506 5.40246 122.322 4.57153 123.327 4.57153ZM105.283 9.63386V9.29636C105.312 6.78671 106.904 4.70771 109.013 4.27605C109.073 4.26356 109.115 4.33815 109.075 4.38506C108.65 4.87376 108.594 6.14647 108.594 9.29636V9.63386C108.594 12.7837 108.65 14.0565 109.075 14.5452C109.115 14.5921 109.073 14.6667 109.013 14.6542C106.904 14.2225 105.312 12.1435 105.283 9.63386ZM114.886 9.63386C114.857 12.1435 113.265 14.2225 111.156 14.6542C111.096 14.6667 111.054 14.5921 111.095 14.5452C111.519 14.0565 111.575 12.7837 111.575 9.63386V9.29636C111.575 6.14647 111.519 4.87376 111.095 4.38506C111.054 4.33815 111.096 4.26356 111.156 4.27605C113.265 4.70771 114.857 6.78671 114.886 9.29636V9.63386ZM103.132 0.193115C104.137 0.193115 104.953 1.02404 104.953 2.04937C104.953 3.07469 104.137 3.90562 103.132 3.90562C102.126 3.90562 101.311 3.07469 101.311 2.04937C101.311 1.02404 102.126 0.193115 103.132 0.193115ZM87.2712 0.531006H90.538C90.6456 0.531006 90.7426 0.597493 90.7833 0.699418L94.6484 10.3853C94.6745 10.4508 94.6745 10.5234 94.6484 10.5892L92.991 14.7364C92.946 14.8484 92.7904 14.8484 92.7457 14.7364L87.1487 0.716968C87.113 0.628206 87.1772 0.531006 87.2712 0.531006ZM94.2247 0.531006H97.4914C97.599 0.531006 97.6961 0.597493 97.7368 0.699418L101.602 10.3853C101.628 10.4508 101.628 10.5234 101.602 10.5892L99.9444 14.7364C99.8994 14.8484 99.7438 14.8484 99.6991 14.7364L94.1022 0.716968C94.0664 0.628206 94.1306 0.531006 94.2247 0.531006ZM74.659 4.5813C75.6645 4.5813 76.4799 5.41222 76.4799 6.43755C76.4799 7.46287 75.6645 8.2938 74.659 8.2938C73.6535 8.2938 72.838 7.46287 72.838 6.43755C72.838 5.41222 73.6535 4.5813 74.659 4.5813ZM68.9968 4.5813H71.7117C71.7848 4.5813 71.8441 4.64171 71.8441 4.7163V14.5713C71.8441 14.6459 71.7848 14.7063 71.7117 14.7063H68.9968C68.9233 14.7063 68.8644 14.6459 68.8644 14.5713V4.7163C68.8644 4.64171 68.9233 4.5813 68.9968 4.5813ZM66.5474 9.37733C66.5478 9.4347 66.5478 9.68682 66.5474 9.84645C66.5474 9.9207 66.4882 9.98112 66.4153 9.98112H63.369C63.2959 9.98112 63.2366 9.92037 63.2366 9.84612V9.37733C63.2366 6.17243 63.181 4.88082 62.7542 4.3857C62.7138 4.33879 62.7565 4.26454 62.8165 4.27703C64.9258 4.7151 66.5332 6.82718 66.5474 9.37733ZM57.2773 9.72023V9.37733C57.3058 6.82752 58.899 4.71477 61.0083 4.27703C61.0682 4.26454 61.1112 4.33879 61.0705 4.3857C60.6438 4.88082 60.5881 6.17243 60.5881 9.37733C60.5885 9.94872 60.5888 10.3139 60.5895 10.4725C60.608 13.0827 60.8461 14.6916 62.9057 14.6916C63.157 14.6916 63.3662 14.6832 63.593 14.6666C63.6828 14.6602 63.6967 14.7696 63.6291 14.7969C63.2477 14.9471 62.8511 15.0345 62.2435 15.0345C61.6095 15.0345 60.9695 14.9103 60.0925 14.5202C58.4533 13.7429 57.3015 11.8856 57.2773 9.72023ZM49.3309 0.666006V14.571C49.3309 14.6453 49.2717 14.706 49.1985 14.706H46.4836C46.4105 14.706 46.3512 14.6453 46.3512 14.571V0.666006C46.3512 0.591418 46.4105 0.531006 46.4836 0.531006H49.1985C49.2717 0.531006 49.3309 0.591418 49.3309 0.666006ZM54.9563 8.1493V14.5719C54.9563 14.6462 54.8967 14.7066 54.8238 14.7066H52.1086C52.0358 14.7066 51.9765 14.6462 51.9765 14.5719V6.77534C51.9765 5.24984 51.6375 4.67508 51.0462 4.59374C50.9737 4.58395 50.9637 4.47798 51.0449 4.45874C51.1429 4.43579 51.3144 4.41284 51.6454 4.41284C53.7975 4.41284 54.9563 5.81515 54.9563 8.1493ZM43.3312 10.5885L41.6738 14.7353C41.6288 14.8477 41.4731 14.8474 41.4285 14.735L37.4856 4.76659C37.4502 4.67782 37.5147 4.5813 37.6084 4.5813H40.8745C40.9828 4.5813 41.0805 4.64846 41.1205 4.75106L43.3318 10.3863C43.3573 10.4514 43.357 10.5237 43.3312 10.5885ZM37.3707 10.5885L35.7133 14.7353C35.6682 14.8477 35.5126 14.8474 35.4679 14.735L31.5251 4.76659C31.4897 4.67782 31.5542 4.5813 31.6479 4.5813H34.914C35.0223 4.5813 35.12 4.64846 35.16 4.75106L37.3713 10.3863C37.3968 10.4514 37.3965 10.5237 37.3707 10.5885ZM30.0892 10.5885L28.4319 14.7353C28.3868 14.8477 28.2312 14.8474 28.1865 14.735L24.2437 4.76659C24.2083 4.67782 24.2728 4.5813 24.3665 4.5813H27.6326C27.7409 4.5813 27.8386 4.64846 27.8786 4.75106L30.0899 10.3863C30.1154 10.4514 30.1151 10.5237 30.0892 10.5885ZM21.8507 8.1493V14.5719C21.8507 14.6462 21.7915 14.7066 21.7183 14.7066H19.0034C18.9303 14.7066 18.871 14.6462 18.871 14.5719V6.77534C18.871 5.24984 18.532 4.67508 17.941 4.59374C17.8682 4.58395 17.8586 4.47798 17.9397 4.45874C18.0373 4.43579 18.2088 4.41284 18.5399 4.41284C20.6919 4.41284 21.8507 5.81515 21.8507 8.1493ZM16.2227 4.7163V14.5713C16.2227 14.6455 16.1634 14.7063 16.0902 14.7063H13.3754C13.3022 14.7063 13.2429 14.6455 13.2429 14.5713V4.7163C13.2429 4.64171 13.3022 4.5813 13.3754 4.5813H16.0902C16.1634 4.5813 16.2227 4.64171 16.2227 4.7163ZM10.7284 14.7057H7.46165C7.35405 14.7057 7.25705 14.6392 7.21632 14.5373L3.35128 4.85135C3.32513 4.78587 3.32513 4.71297 3.35128 4.6475L5.00867 0.500297C5.0537 0.388247 5.20931 0.388247 5.254 0.500297L10.8509 14.5197C10.8867 14.6085 10.8225 14.7057 10.7284 14.7057ZM3.64189 13.1866C3.64189 14.2119 2.82644 15.0428 1.82095 15.0428C0.815453 15.0428 0 14.2119 0 13.1866C0 12.1612 0.815453 11.3303 1.82095 11.3303C2.82644 11.3303 3.64189 12.1612 3.64189 13.1866ZM146.987 12.1646C146.863 13.578 145.678 14.4302 144.072 14.6628C144.001 14.6732 143.966 14.5784 144.028 14.5389C144.302 14.3604 144.476 14.0971 144.517 13.629C144.786 10.5618 138.736 10.8807 139.068 7.1068C139.177 5.8567 140.447 4.88031 141.975 4.62921C142.046 4.61706 142.084 4.7146 142.023 4.75274C141.644 4.99304 141.397 5.34944 141.358 5.79494C141.111 8.60328 147.324 8.33058 146.987 12.1646Z" fill="white"/>
</g>
</svg>
