<svg width="4800" height="951" viewBox="0 0 4800 951" fill="none" xmlns="http://www.w3.org/2000/svg">
<path id="Path 2 Copy 2" opacity="0.5" d="M0 560.464L1846.26 559.933L1956.65 36.6809L2064.77 948L2164.14 217.499L2267.2 629.617L2428.01 2.64441L2550.18 843.032L2615.95 217.499L2720.07 560.464L2805.72 284.649L2892.46 682.664L3001.91 2.64441L3203.24 896.101L3238.13 307.982L3417.43 543.885L3471.97 331.078L3771.61 843.032L3952.87 36.6809L4068.47 879.032L4134.23 253.499L4238.33 596.464L4332.71 331.078L4405.86 682.664L4520.13 38.6444L4560 191.032L4684.5 762L4725 475.5L4788 436.5L4843.5 560.464" stroke="#199BD9"/>
</svg>
