<svg width="576" height="144" viewBox="0 0 576 144" fill="none" xmlns="http://www.w3.org/2000/svg">
<g id="Logo">
<g id="Group">
<path id="Path" d="M14.9241 52.1978L0 0.824821H11.3109L21.1137 38.3738L32.1733 0.824821H39.8082L50.8363 38.3738L60.6391 0.824821H71.9815L57.0259 52.1978H45.715L35.975 20.2843L26.2665 52.1978H14.9241Z" fill="white"/>
<path id="Path_2" d="M80.3386 52.1978V0.824821H109.182V9.66721H90.5185V22.0279H108.427V30.8702H90.5185V43.3554H109.182V52.1978H80.3386Z" fill="white"/>
<path id="Path_3" d="M121.638 52.1978V0.824821H131.818V43.3554H150.544V52.1978H121.638Z" fill="white"/>
<path id="Path_4" d="M158.825 52.1978V0.824821H169.005V43.3554H187.731V52.1978H158.825Z" fill="white"/>
<path id="Shape" fill-rule="evenodd" clip-rule="evenodd" d="M301.098 91.9425C298.979 92.1252 297.343 92.2165 296.191 92.2165H286.444L286.099 95.5729L290.868 96.3949L285.269 139L280.569 139.959L280.362 143.11H300.891L301.098 139.959L294.877 139L297.089 120.848H299.716H303.794C304.531 121.305 305.407 122.72 306.421 125.095C307.481 127.424 308.771 130.575 310.292 134.547L310.914 136.123C311.835 138.634 312.573 140.438 313.126 141.534C313.725 142.584 314.301 143.11 314.854 143.11H326.397L326.604 139.822C325.314 139.822 324.3 139.616 323.563 139.205C322.826 138.749 322.204 138.087 321.697 137.219C321.19 136.351 320.453 134.867 319.485 132.767C319.347 132.401 319.093 131.853 318.725 131.123C317.434 128.154 316.328 125.734 315.407 123.862C314.531 121.99 313.656 120.62 312.78 119.752C316.559 118.565 319.508 116.601 321.628 113.861C323.793 111.076 324.876 107.788 324.876 103.998C324.83 99.8426 323.471 96.7602 320.798 94.7509C318.172 92.696 313.702 91.6685 307.388 91.6685C305.591 91.6685 303.495 91.7599 301.098 91.9425ZM303.863 116.807C300.591 116.807 298.518 116.762 297.642 116.67L300.476 95.9162C301.997 95.6879 303.587 95.5737 305.246 95.5737C308.518 95.5737 310.914 96.3043 312.434 97.7656C314.001 99.1812 314.785 101.396 314.785 104.409C314.785 108.2 313.794 111.191 311.812 113.383C309.831 115.574 307.181 116.716 303.863 116.807Z" fill="white"/>
<path id="Shape_2" fill-rule="evenodd" clip-rule="evenodd" d="M353.871 141.534C356.589 139.89 358.548 138.132 359.746 136.259L357.949 133.246C354.723 136.899 351.129 138.725 347.166 138.725C344.769 138.725 342.972 137.721 341.774 135.711C340.622 133.702 340.092 131.054 340.184 127.766C343.18 127.674 346.359 127.104 349.723 126.053C353.087 124.957 355.967 123.313 358.364 121.122C360.76 118.93 361.958 116.19 361.958 112.902C361.958 110.299 361.082 108.198 359.331 106.6C357.626 104.956 355 104.134 351.451 104.134C347.488 104.134 343.894 105.23 340.668 107.422C337.442 109.614 334.885 112.605 332.996 116.395C331.152 120.14 330.231 124.295 330.231 128.862C330.231 131.556 330.715 134.045 331.682 136.328C332.65 138.611 334.194 140.461 336.313 141.876C338.479 143.292 341.221 144 344.539 144C348.087 144 351.198 143.178 353.871 141.534ZM342.949 113.245C344.516 110.003 346.659 108.381 349.377 108.381C350.529 108.381 351.405 108.838 352.004 109.751C352.649 110.619 352.972 111.875 352.972 113.519C352.972 115.574 352.28 117.401 350.898 119C349.562 120.552 347.88 121.763 345.852 122.631C343.871 123.498 341.981 123.978 340.184 124.069C340.461 120.096 341.382 116.488 342.949 113.245Z" fill="white"/>
<path id="Path_5" d="M391.228 114.409C389.938 112.811 388.786 111.532 387.772 110.573C386.805 109.569 385.952 109.066 385.215 109.066C383.51 109.066 381.92 109.843 380.445 111.395C379.017 112.948 377.842 115.117 376.92 117.903C376.045 120.688 375.607 123.816 375.607 127.287C375.607 131.077 376.16 133.862 377.266 135.643C378.372 137.379 380.054 138.246 382.312 138.246C384.247 138.246 385.883 137.881 387.219 137.15C388.602 136.42 389.938 135.392 391.228 134.068L393.026 137.082C391.874 138.771 390.053 140.324 387.565 141.74C385.123 143.11 382.219 143.795 378.855 143.795C374.892 143.795 371.782 142.425 369.524 139.685C367.266 136.899 366.137 132.972 366.137 127.903C366.137 124.067 366.943 120.346 368.556 116.738C370.169 113.085 372.565 110.094 375.745 107.765C378.925 105.39 382.749 104.203 387.219 104.203C388.648 104.203 390.122 104.34 391.643 104.614C393.21 104.842 394.477 105.185 395.445 105.642L393.095 114.546L391.228 114.409Z" fill="white"/>
<path id="Shape_3" fill-rule="evenodd" clip-rule="evenodd" d="M421.642 141.534C424.361 139.89 426.32 138.132 427.518 136.259L425.721 133.246C422.495 136.899 418.9 138.725 414.937 138.725C412.541 138.725 410.744 137.721 409.546 135.711C408.394 133.702 407.864 131.054 407.956 127.766C410.951 127.674 414.131 127.104 417.495 126.053C420.859 124.957 423.739 123.313 426.135 121.122C428.532 118.93 429.73 116.19 429.73 112.902C429.73 110.299 428.854 108.198 427.103 106.6C425.398 104.956 422.771 104.134 419.223 104.134C415.26 104.134 411.666 105.23 408.44 107.422C405.214 109.614 402.657 112.605 400.767 116.395C398.924 120.14 398.002 124.295 398.002 128.862C398.002 131.556 398.486 134.045 399.454 136.328C400.422 138.611 401.965 140.461 404.085 141.876C406.251 143.292 408.993 144 412.311 144C415.859 144 418.97 143.178 421.642 141.534ZM410.721 113.245C412.288 110.003 414.43 108.381 417.149 108.381C418.301 108.381 419.177 108.838 419.776 109.751C420.421 110.619 420.743 111.875 420.743 113.519C420.743 115.574 420.052 117.401 418.67 119C417.333 120.552 415.651 121.763 413.624 122.631C411.642 123.498 409.753 123.978 407.956 124.069C408.232 120.096 409.154 116.488 410.721 113.245Z" fill="white"/>
<path id="Shape_4" fill-rule="evenodd" clip-rule="evenodd" d="M443.103 96.3276C444.025 97.2411 445.108 97.6978 446.352 97.6978C448.287 97.6978 449.785 97.1269 450.845 95.9851C451.905 94.7977 452.435 93.3362 452.435 91.6007C452.435 90.3676 452.02 89.3172 451.191 88.4495C450.361 87.536 449.232 87.0793 447.804 87.0793C446.053 87.0793 444.601 87.6502 443.449 88.792C442.343 89.9337 441.79 91.3495 441.79 93.0394C441.79 94.2725 442.228 95.3686 443.103 96.3276ZM445.523 137.084C445.523 136.765 445.546 136.491 445.592 136.262L450.015 105.028L448.357 104.274L436.467 105.918L435.984 108.589L440.062 110.507L438.956 118.453C437.343 129.869 436.398 136.765 436.122 139.139L436.053 139.824C436.053 141.057 436.56 142.039 437.573 142.77C438.587 143.455 439.993 143.797 441.79 143.797C444.002 143.797 445.868 143.272 447.389 142.222C448.956 141.171 450.131 140.121 450.914 139.071L450.015 136.947C449.232 137.587 448.587 138.043 448.08 138.317C447.573 138.591 447.112 138.728 446.698 138.728C445.914 138.728 445.523 138.18 445.523 137.084Z" fill="white"/>
<path id="Path_6" d="M458.743 111.532C458.512 110.299 458.005 109.637 457.222 109.546C456.715 109.546 456.277 109.66 455.909 109.888C455.54 110.117 455.333 110.254 455.286 110.299L454.319 107.97C454.872 107.286 455.885 106.486 457.36 105.573C458.835 104.66 460.471 104.203 462.268 104.203C464.065 104.203 465.401 104.591 466.277 105.368C467.152 106.144 467.705 107.286 467.936 108.792L470.908 128.999L471.876 136.26L474.71 132.356C476.783 129.25 478.327 126.351 479.341 123.656C480.401 120.916 481.023 118.017 481.207 114.957C481.253 114.09 481.092 112.925 480.723 111.464C480.401 110.277 480.24 109.272 480.24 108.45C480.24 107.217 480.631 106.212 481.415 105.436C482.198 104.614 483.258 104.203 484.594 104.203C486.391 104.203 487.705 104.888 488.534 106.258C489.41 107.582 489.848 109.272 489.848 111.327C489.848 116.989 485.378 125.437 476.438 136.671L471.185 143.315L465.102 143.795L462.613 131.26L458.743 111.532Z" fill="white"/>
<path id="Shape_5" fill-rule="evenodd" clip-rule="evenodd" d="M516.348 141.534C519.067 139.89 521.026 138.132 522.224 136.259L520.427 133.246C517.201 136.899 513.607 138.725 509.644 138.725C507.247 138.725 505.45 137.721 504.252 135.711C503.1 133.702 502.57 131.054 502.662 127.766C505.658 127.674 508.837 127.104 512.201 126.053C515.565 124.957 518.445 123.313 520.841 121.122C523.238 118.93 524.436 116.19 524.436 112.902C524.436 110.299 523.56 108.198 521.809 106.6C520.104 104.956 517.477 104.134 513.929 104.134C509.966 104.134 506.372 105.23 503.146 107.422C499.92 109.614 497.363 112.605 495.474 116.395C493.63 120.14 492.709 124.295 492.709 128.862C492.709 131.556 493.192 134.045 494.16 136.328C495.128 138.611 496.672 140.461 498.791 141.876C500.957 143.292 503.699 144 507.017 144C510.565 144 513.676 143.178 516.348 141.534ZM505.427 113.245C506.994 110.003 509.136 108.381 511.855 108.381C513.007 108.381 513.883 108.838 514.482 109.751C515.127 110.619 515.449 111.875 515.449 113.519C515.449 115.574 514.758 117.401 513.376 119C512.039 120.552 510.357 121.763 508.33 122.631C506.348 123.498 504.459 123.978 502.662 124.069C502.938 120.096 503.86 116.488 505.427 113.245Z" fill="white"/>
<path id="Shape_6" fill-rule="evenodd" clip-rule="evenodd" d="M559.858 137.013C559.858 136.648 559.881 136.374 559.927 136.191L566.908 88.7913L565.18 87.9008L552.738 89.2707L552.116 91.8051L557.093 93.1751L555.365 104.751C553.89 104.385 552.485 104.203 551.148 104.203C546.356 104.203 542.255 105.436 538.845 107.902C535.481 110.322 532.946 113.473 531.241 117.354C529.536 121.236 528.684 125.3 528.684 129.547C528.684 133.794 529.628 137.241 531.518 139.89C533.407 142.493 536.287 143.794 540.158 143.794C542.646 143.794 544.858 143.246 546.794 142.15C548.729 141.009 550.273 139.639 551.425 138.04V139.068C551.563 140.666 552.047 141.853 552.877 142.63C553.706 143.406 554.927 143.794 556.54 143.794C559.674 143.794 562.531 142.287 565.111 139.273L564.144 137.15C562.853 138.2 561.816 138.725 561.033 138.725C560.25 138.725 559.858 138.155 559.858 137.013ZM550.319 108.452C552.07 108.452 553.522 108.772 554.674 109.411L550.941 134.07C550.112 135.303 549.052 136.376 547.761 137.29C546.471 138.157 545.112 138.591 543.683 138.591C541.932 138.591 540.573 137.769 539.605 136.125C538.683 134.481 538.223 132.152 538.223 129.138C538.223 125.896 538.637 122.7 539.467 119.549C540.296 116.398 541.61 113.772 543.407 111.672C545.204 109.525 547.508 108.452 550.319 108.452Z" fill="white"/>
<path id="Path_7" fill-rule="evenodd" clip-rule="evenodd" d="M270.057 9.87027e-05C271.382 -0.0112677 272.507 0.960325 272.676 2.26278L281.585 70.717H573.382C574.828 70.717 576 71.8785 576 73.3116C576 74.7445 574.828 75.9062 573.382 75.9062H279.282C277.965 75.9062 276.853 74.9374 276.685 73.6434L270.269 24.3422L260.756 108.985C260.614 110.241 259.582 111.213 258.31 111.288C257.039 111.364 255.896 110.521 255.604 109.293L245.61 67.1603L234.86 109.334C234.552 110.542 233.42 111.363 232.164 111.288C230.908 111.214 229.883 110.264 229.724 109.028L218.66 23.2729L212.303 73.6336C212.139 74.932 211.025 75.9062 209.705 75.9062H14.4894C13.0433 75.9062 11.8711 74.7445 11.8711 73.3116C11.8711 71.8785 13.0433 70.717 14.4894 70.717H207.393L216.035 2.2726C216.198 0.975633 217.309 0.00185369 218.629 8.72865e-05C219.947 -0.00167911 221.062 0.969115 221.229 2.26565L233.166 94.7888L243.162 55.5721C243.458 54.4123 244.515 53.6031 245.723 53.613C246.929 53.623 247.973 54.4493 248.25 55.6137L257.23 93.4709L267.477 2.30737C267.624 1.00221 268.732 0.0114651 270.057 9.87027e-05Z" fill="white"/>
</g>
</g>
</svg>
